<svg width="20" height="19" viewBox="0 0 20 19" fill="none" xmlns="http://www.w3.org/2000/svg">
<path d="M19.91 15.0172L19.8105 14.7462C19.5747 14.1132 18.8019 13.453 18.092 13.279L15.4644 12.6306C14.7518 12.4555 13.7354 12.691 13.2141 13.1619L12.2631 14.0209C8.80711 13.1773 6.09706 10.7292 5.16445 7.60796L6.11542 6.74893C6.63675 6.278 6.89738 5.36105 6.70352 4.71738L5.98703 2.34269C5.79317 1.7002 5.06096 1.00213 4.36152 0.791501L4.06158 0.700404C3.3608 0.489775 2.36138 0.702789 1.84008 1.17368L0.417572 2.45984C0.163441 2.68818 0.00102072 3.34131 0.00102072 3.3437C-0.0487324 7.42338 1.72218 11.354 4.91686 14.2398C8.1037 17.1185 12.4386 18.7159 16.9419 18.6816C16.9655 18.6816 17.7095 18.5372 17.9636 18.3088L19.3861 17.0239C19.9074 16.553 20.1432 15.6502 19.91 15.0172Z" fill="black"/>
</svg>
