<svg width="27" height="19" viewBox="0 0 27 19" fill="none" xmlns="http://www.w3.org/2000/svg">
<path d="M13.5339 11.3006H13.5397C13.7433 11.3006 13.9445 11.2416 14.1073 11.134L14.1514 11.1056C14.1611 11.0994 14.1711 11.0937 14.1812 11.0869L14.6955 10.6614L26.9717 0.530936C26.9463 0.495863 26.903 0.471863 26.8569 0.471863H0.142632C0.1095 0.471863 0.07875 0.483863 0.0542647 0.504025L12.898 11.0902C13.0599 11.2243 13.2908 11.3006 13.5339 11.3006ZM0 1.90732V16.9236L9.20074 9.4911L0 1.90732ZM17.8089 9.54152L27 16.9275V1.95726L17.8089 9.54152ZM14.8867 11.9523C14.5203 12.2529 14.041 12.4186 13.5377 12.4186C13.0325 12.4186 12.5537 12.2539 12.1883 11.9547L10.081 10.2167L0 18.3591V18.385C0 18.4623 0.0662647 18.5281 0.144529 18.5281H26.8574C26.9342 18.5281 27 18.4623 27 18.3845V18.3605L16.9276 10.2677L14.8867 11.9523Z" fill="black"/>
</svg>
