<svg width="21" height="21" viewBox="0 0 21 21" fill="none" xmlns="http://www.w3.org/2000/svg">
<path d="M18.4989 16.2585C17.4834 16.5946 16.4271 16.7648 15.3577 16.7648C9.84391 16.7648 5.358 12.2794 5.358 6.76472C5.358 4.53906 6.07585 2.43074 7.43385 0.668906C7.49626 0.58736 7.49803 0.47564 7.43916 0.391968C7.38012 0.309419 7.27412 0.273222 7.17681 0.306171C2.88357 1.72558 0 5.71838 0 10.2407C0 16.0106 4.69424 20.7059 10.4644 20.7059C13.7341 20.7059 16.7565 19.2167 18.7556 16.6212C18.819 16.54 18.8208 16.4283 18.7619 16.3453C18.7027 16.2617 18.596 16.2259 18.4989 16.2585Z" fill="black"/>
<path d="M13.3475 6.18855L14.8836 5.07236L16.4189 6.18855L15.8324 4.38338L17.3677 3.26754H15.4701L14.884 1.46243L14.2978 3.26754H12.3987L13.934 4.38338L13.3475 6.18855Z" fill="black"/>
<path d="M21 6.54989H20.2228L19.9827 5.81061L19.7424 6.54989H18.9655L19.5934 7.00693L19.3538 7.74586L19.9824 7.28918L20.6107 7.74586L20.371 7.00693L21 6.54989Z" fill="black"/>
</svg>
