<svg width="50" height="50" viewBox="0 0 50 50" fill="none" xmlns="http://www.w3.org/2000/svg">
<g clip-path="url(#clip0)">
<path d="M28.8574 21.582L22.041 25.6836C21.9238 25.7519 21.875 25.8887 21.9141 26.0156L22.8027 29.1992C22.832 29.2871 22.959 29.2773 22.9687 29.1797L23.1641 26.9824C23.1738 26.8164 23.252 26.6601 23.3789 26.5527L28.9453 21.6992C29.0039 21.6406 28.9258 21.5332 28.8574 21.582Z" fill="#231F20"/>
<path d="M31.4746 15.1172H18.5352C16.6504 15.1172 15.1172 16.6504 15.1172 18.5352V31.4746C15.1172 33.3594 16.6504 34.8926 18.5352 34.8926H31.4746C33.3594 34.8926 34.8926 33.3594 34.8926 31.4746V18.5352C34.8926 16.6504 33.3496 15.1172 31.4746 15.1172ZM32.041 19.4336L29.541 30.791C29.4531 31.1719 29.0039 31.3281 28.7012 31.084L25.7715 28.7598C25.5566 28.584 25.2344 28.6133 25.0488 28.8281L23.5449 30.5664C23.2812 30.8789 22.7734 30.7715 22.6562 30.3906L21.3281 26.2988C21.2695 26.1328 21.1328 25.9961 20.9668 25.957L18.3398 25.2637C17.8613 25.1367 17.8125 24.4727 18.2715 24.2773L31.3281 18.8379C31.7187 18.6816 32.1289 19.0234 32.041 19.4336Z" fill="#231F20"/>
</g>
<defs>
<clipPath id="clip0">
<rect width="50" height="50" fill="white"/>
</clipPath>
</defs>
</svg>
