<svg width="50.00000000000001" height="50.00000000000001" xmlns="http://www.w3.org/2000/svg" style="vector-effect: non-scaling-stroke;" stroke="null">
 <defs style="vector-effect: non-scaling-stroke;" stroke="null">
  <clipPath style="vector-effect: non-scaling-stroke;" stroke="null" id="clip0">
   <rect style="vector-effect: non-scaling-stroke;" stroke="null" id="svg_1" fill="white" height="50" width="50"/>
  </clipPath>
 </defs>
 <g stroke="null">
  <title stroke="null">background</title>
  <rect stroke="null" fill="none" id="canvas_background" height="402" width="582" y="-1" x="-1"/>
 </g>
 <g stroke="null">
  <title stroke="null">Layer 1</title>
  <g stroke="null" id="svg_2" clip-path="url(#clip0)">
   <path stroke="null" id="svg_3" fill="#231F20" d="m34.740894,16.354582l-17.22633,10.365518c-0.296187,0.172607 -0.419513,0.518326 -0.3207,0.839027l2.24566,8.045559c0.074047,0.22214 0.395,0.197373 0.419513,-0.04928l0.493813,-5.552992c0.024514,-0.419513 0.22214,-0.814513 0.54284,-1.085933l14.067344,-12.265712c0.148093,-0.148093 -0.04928,-0.419513 -0.22214,-0.296187z"/>
   <path stroke="null" id="svg_4" fill="#231F20" d="m41.355053,0.016811l-32.700308,0c-4.763246,0 -8.637932,3.874686 -8.637932,8.637932l0,32.700309c0,4.763246 3.874686,8.637932 8.637932,8.637932l32.700308,0c4.763246,0 8.637932,-3.874686 8.637932,-8.637932l0,-32.700309c0,-4.763246 -3.899452,-8.637932 -8.637932,-8.637932zm1.4314,10.908359l-6.317972,28.702296c-0.22214,0.962606 -1.357353,1.357353 -2.122333,0.740466l-7.403905,-5.873693c-0.543093,-0.44428 -1.357353,-0.370233 -1.826399,0.172607l-3.800639,4.393013c-0.66642,0.789747 -1.949726,0.518326 -2.245913,-0.44428l-3.35636,-10.340752c-0.148093,-0.419513 -0.49356,-0.76498 -0.913073,-0.863793l-6.638925,-1.7521c-1.20926,-0.320953 -1.332587,-1.999006 -0.172607,-2.492819l32.996495,-13.746392c0.98712,-0.395 2.023773,0.468794 1.801633,1.505446z"/>
  </g>
 </g>
</svg>